<?xml version="1.0" encoding="utf-8"?>
<!-- Generator: Adobe Illustrator 16.0.4, SVG Export Plug-In . SVG Version: 6.00 Build 0)  -->
<!DOCTYPE svg PUBLIC "-//W3C//DTD SVG 1.1//EN" "http://www.w3.org/Graphics/SVG/1.1/DTD/svg11.dtd">
<svg version="1.1" id="Layer_1" xmlns="http://www.w3.org/2000/svg" xmlns:xlink="http://www.w3.org/1999/xlink" x="0px" y="0px"
	 width="100px" height="100px" viewBox="0 0 100 100" enable-background="new 0 0 100 100" xml:space="preserve">
<g>
	<rect x="2.438" y="6.4" fill="none" width="95.125" height="87.199"/>
	<path fill="#231F20" d="M73.793,6.4c-17.377,0-23.757,20.774-23.757,20.774S43.73,6.4,26.23,6.4
		c-13.152,0-28.15,10.426-22.61,34.11C9.162,64.207,49.866,93.6,49.866,93.6s0.208-0.08,0.208-0.213
		c0,0.125,0.134,0.197,0.134,0.197s40.626-29.377,46.167-53.063C101.926,16.826,86.941,6.4,73.793,6.4"/>
	<rect x="2.438" y="6.4" fill="none" width="95.125" height="87.199"/>
	<path fill="#FFFFFF" d="M42.016,59.982c-0.523-0.455-1.149-1.193-1.916-1.17c-0.352,0.004-0.686,0.123-0.916,0.328L37.114,61
		c-3.175-2.844-2.851-2.83-5.22-0.69V35.748h10.121L42.016,59.982L42.016,59.982z M36.11,67.142h1.69l-0.844,0.918L36.11,67.142z
		 M32.229,62.937l1.89-1.703l2.067,1.852c0.467,0.418,1.393,0.418,1.856,0l2.088-1.873l1.75,1.508l-2.315,2.513h-5.223
		L32.229,62.937z M37.054,26.3c2.736,0,4.96,1.732,4.96,3.858v0.892H31.892v-0.89C31.895,28.034,34.12,26.3,37.054,26.3
		 M31.895,32.964h10.121v0.872H31.895V32.964z M36.855,24.389c-4.092,0-7.422,2.588-7.422,5.771V62.88
		c0,0.201,0.082,0.398,0.232,0.56l6.29,6.817c0.229,0.248,0.602,0.398,1,0.398c0.394,0,0.768-0.15,1-0.398l6.29-6.817
		c0.15-0.16,0.229-0.359,0.229-0.56V30.16C44.474,26.979,41.146,24.389,36.855,24.389"/>
	<path fill="#FFFFFF" d="M59.242,67.855V27.187h11.262v1.854H67.6v1.888h2.904v2.496h-4.936v1.89h4.936v2.495H67.6v1.889h2.904
		v2.498h-4.936v1.888h4.936v2.494H67.6v1.888h2.904v2.496h-4.936v1.889h4.936v2.495H67.6v1.89h2.904v2.496h-4.936v1.889h4.936v2.492
		H67.6V66h2.904v1.855H59.242z M57.354,69.744h15.041V25.298H57.354V69.744z"/>
</g>
</svg>
